<svg width="20" height="20" viewBox="0 0 20 20" fill="none" xmlns="http://www.w3.org/2000/svg">
<path d="M9.66667 7.18883C10.5258 7.17716 11.3892 7.4955 12.045 8.15133C12.7008 8.80716 13.0192 9.67052 13.0075 10.5297M9.66667 3.83301C11.38 3.83301 13.0942 4.48718 14.4017 5.79468C15.7092 7.10218 16.3634 8.81635 16.3634 10.5297M8.60406 11.3956C7.60263 10.3942 6.8477 9.27292 6.34613 8.13539C6.24 7.89488 6.30248 7.61328 6.48822 7.42754L7.18922 6.72739C7.76354 6.15307 7.76354 5.34079 7.26197 4.83922L6.25712 3.83437C5.58864 3.16589 4.50504 3.16589 3.83656 3.83437L3.2785 4.39243C2.64425 5.02667 2.37977 5.94165 2.55096 6.84894C2.97379 9.08547 4.27308 11.5343 6.36924 13.6304C8.4654 15.7266 10.9142 17.0259 13.1507 17.4487C14.058 17.6199 14.973 17.3554 15.6072 16.7212L16.1645 16.164C16.8329 15.4955 16.8329 14.4119 16.1645 13.7434L15.1605 12.7394C14.6589 12.2378 13.8458 12.2378 13.345 12.7394L12.5721 13.5132C12.3864 13.6989 12.1048 13.7614 11.8643 13.6553C10.7268 13.1528 9.6055 12.397 8.60406 11.3956Z" stroke="white" stroke-width="1.5" stroke-linecap="round" stroke-linejoin="round"/>
</svg>
